<svg xmlns="http://www.w3.org/2000/svg" xmlns:xlink="http://www.w3.org/1999/xlink" width="500" zoomAndPan="magnify" viewBox="0 0 375 374.999991" height="500" preserveAspectRatio="xMidYMid meet" version="1.0"><defs><clipPath id="e538136458"><path d="M 64.210938 155 L 310.960938 155 L 310.960938 243 L 64.210938 243 Z M 64.210938 155 " clip-rule="nonzero"/></clipPath><clipPath id="41b8a70571"><path d="M 64.210938 155 L 310.960938 155 L 310.960938 243 L 64.210938 243 Z M 64.210938 155 " clip-rule="nonzero"/></clipPath></defs><g clip-path="url(#e538136458)"><path fill="#ffffff" d="M 267.476562 155.800781 L 222.070312 155.800781 L 222.070312 162.917969 L 260.980469 162.917969 L 287.984375 223.511719 L 88.503906 223.511719 L 114.9375 162.917969 L 152.886719 162.917969 L 152.886719 155.800781 L 108.042969 155.800781 L 64.28125 237.050781 L 64.28125 242.828125 L 310.707031 242.828125 L 310.707031 237.105469 Z M 267.476562 155.800781 " fill-opacity="1" fill-rule="nonzero"/></g><path fill="#ffffff" d="M 228.660156 135.082031 C 228.347656 134.984375 220.914062 132.648438 214.652344 137.203125 C 209.738281 140.777344 207.140625 147.347656 206.917969 156.746094 L 170.664062 156.746094 C 170.789062 149.414062 172.527344 144.316406 175.710938 141.96875 C 179.265625 139.347656 183.902344 140.707031 184.011719 140.742188 C 185.695312 141.273438 187.5 140.351562 188.046875 138.667969 C 188.59375 136.972656 187.667969 135.164062 185.976562 134.613281 C 185.667969 134.511719 178.234375 132.175781 171.972656 136.730469 C 166.832031 140.46875 164.222656 147.484375 164.222656 157.589844 L 164.222656 189.839844 C 164.222656 191.617188 165.660156 193.054688 167.441406 193.054688 C 169.21875 193.054688 170.65625 191.617188 170.65625 189.839844 L 170.65625 178.824219 L 206.90625 178.824219 L 206.90625 190.3125 C 206.90625 192.085938 208.34375 193.53125 210.121094 193.53125 C 211.894531 193.53125 213.335938 192.085938 213.335938 190.3125 L 213.335938 158.070312 C 213.335938 150.28125 215.085938 144.878906 218.390625 142.441406 C 221.945312 139.816406 226.578125 141.179688 226.691406 141.214844 C 228.378906 141.746094 230.183594 140.828125 230.726562 139.144531 C 231.273438 137.453125 230.347656 135.632812 228.660156 135.082031 Z M 170.65625 172.394531 L 170.65625 163.179688 L 206.90625 163.179688 L 206.90625 172.394531 Z M 170.65625 172.394531 " fill-opacity="1" fill-rule="nonzero"/><g clip-path="url(#41b8a70571)"><path fill="#ffffff" d="M 267.476562 155.800781 L 222.070312 155.800781 L 222.070312 162.917969 L 260.980469 162.917969 L 287.984375 223.511719 L 88.503906 223.511719 L 114.9375 162.917969 L 152.886719 162.917969 L 152.886719 155.800781 L 108.042969 155.800781 L 64.28125 237.050781 L 64.28125 242.828125 L 310.707031 242.828125 L 310.707031 237.105469 Z M 267.476562 155.800781 " fill-opacity="1" fill-rule="nonzero"/></g><path fill="#ffffff" d="M 228.660156 135.082031 C 228.347656 134.984375 220.914062 132.648438 214.652344 137.203125 C 209.738281 140.777344 207.140625 147.347656 206.917969 156.746094 L 170.664062 156.746094 C 170.789062 149.414062 172.527344 144.316406 175.710938 141.96875 C 179.265625 139.347656 183.902344 140.707031 184.011719 140.742188 C 185.695312 141.273438 187.5 140.351562 188.046875 138.667969 C 188.59375 136.972656 187.667969 135.164062 185.976562 134.613281 C 185.667969 134.511719 178.234375 132.175781 171.972656 136.730469 C 166.832031 140.46875 164.222656 147.484375 164.222656 157.589844 L 164.222656 189.839844 C 164.222656 191.617188 165.660156 193.054688 167.441406 193.054688 C 169.21875 193.054688 170.65625 191.617188 170.65625 189.839844 L 170.65625 178.824219 L 206.90625 178.824219 L 206.90625 190.3125 C 206.90625 192.085938 208.34375 193.53125 210.121094 193.53125 C 211.894531 193.53125 213.335938 192.085938 213.335938 190.3125 L 213.335938 158.070312 C 213.335938 150.28125 215.085938 144.878906 218.390625 142.441406 C 221.945312 139.816406 226.578125 141.179688 226.691406 141.214844 C 228.378906 141.746094 230.183594 140.828125 230.726562 139.144531 C 231.273438 137.453125 230.347656 135.632812 228.660156 135.082031 Z M 170.65625 172.394531 L 170.65625 163.179688 L 206.90625 163.179688 L 206.90625 172.394531 Z M 170.65625 172.394531 " fill-opacity="1" fill-rule="nonzero"/></svg>